<svg xmlns="http://www.w3.org/2000/svg" xmlns:xlink="http://www.w3.org/1999/xlink" width="500" zoomAndPan="magnify" viewBox="0 0 375 374.999991" height="500" preserveAspectRatio="xMidYMid meet" version="1.2"><defs><clipPath id="f01c9ec249"><path d="M 118.105469 126.0625 L 184.855469 126.0625 L 184.855469 239 L 118.105469 239 Z M 118.105469 126.0625 "/></clipPath></defs><g id="4b2288c61f"><g clip-rule="nonzero" clip-path="url(#f01c9ec249)"><path style=" stroke:none;fill-rule:nonzero;fill:#0d8c99;fill-opacity:1;" d="M 170.601562 148.492188 L 160.871094 148.492188 L 160.871094 131.386719 C 161.902344 130.945312 162.492188 130.058594 162.492188 129.027344 C 162.492188 127.550781 161.3125 126.371094 159.835938 126.371094 L 143.027344 126.371094 C 141.550781 126.371094 140.371094 127.550781 140.371094 129.027344 C 140.371094 130.058594 141.109375 131.089844 141.992188 131.386719 L 141.992188 148.492188 L 132.261719 148.492188 C 124.445312 148.492188 118.105469 154.832031 118.105469 162.648438 L 118.105469 224.4375 C 118.105469 232.253906 124.445312 238.597656 132.261719 238.597656 L 170.601562 238.597656 C 178.417969 238.597656 184.761719 232.253906 184.761719 224.4375 L 184.761719 162.648438 C 184.761719 154.832031 178.417969 148.492188 170.601562 148.492188 Z M 158.363281 148.492188 L 144.351562 148.492188 L 144.351562 131.679688 L 158.363281 131.679688 Z M 158.363281 148.492188 "/></g><path style=" stroke:none;fill-rule:nonzero;fill:#0d8c99;fill-opacity:1;" d="M 125.625 238.597656 C 122.824219 238.597656 120.609375 240.808594 120.609375 243.609375 C 120.609375 246.414062 122.824219 248.625 125.625 248.625 C 128.425781 248.625 130.636719 246.414062 130.636719 243.609375 C 130.636719 240.808594 128.425781 238.597656 125.625 238.597656 Z M 125.625 245.527344 C 124.445312 245.527344 123.558594 244.644531 123.558594 243.464844 C 123.558594 242.28125 124.445312 241.398438 125.625 241.398438 C 126.804688 241.398438 127.6875 242.28125 127.6875 243.464844 C 127.6875 244.644531 126.804688 245.527344 125.625 245.527344 Z M 125.625 245.527344 "/><path style=" stroke:none;fill-rule:nonzero;fill:#0d8c99;fill-opacity:1;" d="M 177.238281 238.597656 C 174.4375 238.597656 172.226562 240.808594 172.226562 243.609375 C 172.226562 246.414062 174.4375 248.625 177.238281 248.625 C 180.039062 248.625 182.253906 246.414062 182.253906 243.609375 C 182.253906 240.808594 179.894531 238.597656 177.238281 238.597656 Z M 177.238281 245.527344 C 176.058594 245.527344 175.175781 244.644531 175.175781 243.464844 C 175.175781 242.28125 176.058594 241.398438 177.238281 241.398438 C 178.417969 241.398438 179.304688 242.28125 179.304688 243.464844 C 179.15625 244.644531 178.269531 245.527344 177.238281 245.527344 Z M 177.238281 245.527344 "/><g style="fill:#ffffff;fill-opacity:1;"><g transform="translate(134.655392, 209.254624)"><path style="stroke:none" d="M 34.765625 -32.3125 L 22.4375 -32.3125 L 22.4375 0 L 13.078125 0 L 13.078125 -32.3125 L 0.6875 -32.3125 L 0.6875 -40.53125 L 34.765625 -40.53125 Z M 34.765625 -32.3125 "/></g></g><g style="fill:#0b4a84;fill-opacity:1;"><g transform="translate(36.953233, 213.40604)"><path style="stroke:none" d="M 0.734375 -37.9375 L 9.203125 -37.9375 L 19.046875 -9.109375 L 28.921875 -37.9375 L 37.265625 -37.9375 L 23.5 0 L 14.4375 0 Z M 0.734375 -37.9375 "/></g></g><g style="fill:#0b4a84;fill-opacity:1;"><g transform="translate(72.811072, 213.40604)"><path style="stroke:none" d="M 2.5625 -34.890625 C 2.5625 -36.210938 3.019531 -37.328125 3.9375 -38.234375 C 4.863281 -39.140625 5.957031 -39.59375 7.21875 -39.59375 C 8.539062 -39.59375 9.660156 -39.140625 10.578125 -38.234375 C 11.503906 -37.328125 11.96875 -36.210938 11.96875 -34.890625 C 11.96875 -33.597656 11.503906 -32.5 10.578125 -31.59375 C 9.660156 -30.6875 8.539062 -30.234375 7.21875 -30.234375 C 5.957031 -30.234375 4.863281 -30.6875 3.9375 -31.59375 C 3.019531 -32.5 2.5625 -33.597656 2.5625 -34.890625 Z M 3.484375 0 L 11.09375 0 L 11.09375 -25.875 L 3.484375 -25.875 Z M 3.484375 0 "/></g></g><g style="fill:#0b4a84;fill-opacity:1;"><g transform="translate(85.2642, 213.40604)"><path style="stroke:none" d="M 9.59375 -10.859375 C 9.851562 -9.242188 10.585938 -7.988281 11.796875 -7.09375 C 13.003906 -6.207031 14.398438 -5.765625 15.984375 -5.765625 C 17.085938 -5.765625 18.179688 -6.035156 19.265625 -6.578125 C 20.347656 -7.128906 21.175781 -7.890625 21.75 -8.859375 L 27.234375 -5.28125 C 25.066406 -1.375 21.351562 0.578125 16.09375 0.578125 C 13.46875 0.578125 11.082031 0.00390625 8.9375 -1.140625 C 6.789062 -2.285156 5.078125 -3.875 3.796875 -5.90625 C 2.523438 -7.945312 1.890625 -10.304688 1.890625 -12.984375 C 1.890625 -14.859375 2.25 -16.609375 2.96875 -18.234375 C 3.695312 -19.867188 4.691406 -21.304688 5.953125 -22.546875 C 7.210938 -23.796875 8.664062 -24.765625 10.3125 -25.453125 C 11.96875 -26.148438 13.734375 -26.5 15.609375 -26.5 C 18.191406 -26.5 20.441406 -25.945312 22.359375 -24.84375 C 24.285156 -23.75 25.785156 -22.234375 26.859375 -20.296875 C 27.941406 -18.359375 28.484375 -16.113281 28.484375 -13.5625 C 28.484375 -13.113281 28.484375 -12.660156 28.484375 -12.203125 C 28.484375 -11.753906 28.453125 -11.304688 28.390625 -10.859375 Z M 20.9375 -15.84375 C 20.90625 -16.488281 20.6875 -17.15625 20.28125 -17.84375 C 19.875 -18.539062 19.273438 -19.128906 18.484375 -19.609375 C 17.691406 -20.097656 16.664062 -20.34375 15.40625 -20.34375 C 14.28125 -20.34375 13.3125 -20.082031 12.5 -19.5625 C 11.695312 -19.050781 11.066406 -18.445312 10.609375 -17.75 C 10.160156 -17.0625 9.882812 -16.425781 9.78125 -15.84375 Z M 20.9375 -15.84375 "/></g></g><g style="fill:#0b4a84;fill-opacity:1;"><g transform="translate(187.202306, 213.56008)"><path style="stroke:none" d="M 19.859375 -18.515625 C 19.285156 -18.609375 18.691406 -18.65625 18.078125 -18.65625 C 16.359375 -18.65625 14.984375 -18.304688 13.953125 -17.609375 C 12.921875 -16.921875 12.175781 -15.992188 11.71875 -14.828125 C 11.269531 -13.660156 11.046875 -12.367188 11.046875 -10.953125 L 11.046875 0 L 3.484375 0 L 3.484375 -25.875 L 11 -25.875 L 11 -21.90625 L 11.046875 -21.90625 C 11.566406 -23.03125 12.460938 -24.019531 13.734375 -24.875 C 15.015625 -25.738281 16.554688 -26.171875 18.359375 -26.171875 C 18.972656 -26.171875 19.472656 -26.101562 19.859375 -25.96875 Z M 19.859375 -18.515625 "/></g></g><g style="fill:#0b4a84;fill-opacity:1;"><g transform="translate(205.663033, 213.56008)"><path style="stroke:none" d="M 10.75 0.484375 C 9.207031 0.484375 7.769531 0.175781 6.4375 -0.4375 C 5.113281 -1.050781 4.046875 -1.9375 3.234375 -3.09375 C 2.429688 -4.257812 2.03125 -5.632812 2.03125 -7.21875 L 2.03125 -7.3125 C 2.03125 -8.925781 2.378906 -10.242188 3.078125 -11.265625 C 3.773438 -12.285156 4.695312 -13.09375 5.84375 -13.6875 C 6.988281 -14.28125 8.238281 -14.691406 9.59375 -14.921875 C 10.945312 -15.148438 12.269531 -15.265625 13.5625 -15.265625 L 16.140625 -15.265625 C 16.847656 -15.265625 17.363281 -15.445312 17.6875 -15.8125 C 18.007812 -16.1875 18.171875 -16.632812 18.171875 -17.15625 C 18.171875 -17.988281 17.832031 -18.726562 17.15625 -19.375 C 16.476562 -20.019531 15.425781 -20.34375 14 -20.34375 C 12.644531 -20.34375 11.503906 -20.046875 10.578125 -19.453125 C 9.660156 -18.859375 8.878906 -17.992188 8.234375 -16.859375 L 2.46875 -20.296875 C 3.5 -22.203125 5 -23.703125 6.96875 -24.796875 C 8.945312 -25.898438 11.40625 -26.453125 14.34375 -26.453125 C 16.539062 -26.453125 18.484375 -26.070312 20.171875 -25.3125 C 21.867188 -24.550781 23.191406 -23.394531 24.140625 -21.84375 C 25.097656 -20.300781 25.578125 -18.363281 25.578125 -16.03125 L 25.578125 0 L 18.609375 0 L 18.609375 -3.203125 L 18.515625 -3.25 C 17.546875 -1.851562 16.363281 -0.878906 14.96875 -0.328125 C 13.582031 0.210938 12.175781 0.484375 10.75 0.484375 Z M 12.9375 -5.046875 C 14.613281 -5.046875 15.894531 -5.535156 16.78125 -6.515625 C 17.675781 -7.503906 18.125 -8.675781 18.125 -10.03125 L 18.125 -10.609375 L 13.5625 -10.609375 C 12.5625 -10.609375 11.65625 -10.375 10.84375 -9.90625 C 10.039062 -9.4375 9.640625 -8.6875 9.640625 -7.65625 C 9.640625 -6.75 9.960938 -6.085938 10.609375 -5.671875 C 11.253906 -5.253906 12.03125 -5.046875 12.9375 -5.046875 Z M 12.9375 -5.046875 "/></g></g><g style="fill:#0b4a84;fill-opacity:1;"><g transform="translate(232.361017, 213.56008)"><path style="stroke:none" d="M 0.671875 -25.875 L 8.671875 -25.875 L 15.0625 -8.625 L 21.46875 -25.875 L 29.453125 -25.875 L 18.84375 0 L 11.140625 0 Z M 0.671875 -25.875 "/></g></g><g style="fill:#0b4a84;fill-opacity:1;"><g transform="translate(260.318819, 213.56008)"><path style="stroke:none" d="M 9.59375 -10.859375 C 9.851562 -9.242188 10.585938 -7.988281 11.796875 -7.09375 C 13.003906 -6.207031 14.398438 -5.765625 15.984375 -5.765625 C 17.085938 -5.765625 18.179688 -6.035156 19.265625 -6.578125 C 20.347656 -7.128906 21.175781 -7.890625 21.75 -8.859375 L 27.234375 -5.28125 C 25.066406 -1.375 21.351562 0.578125 16.09375 0.578125 C 13.46875 0.578125 11.082031 0.00390625 8.9375 -1.140625 C 6.789062 -2.285156 5.078125 -3.875 3.796875 -5.90625 C 2.523438 -7.945312 1.890625 -10.304688 1.890625 -12.984375 C 1.890625 -14.859375 2.25 -16.609375 2.96875 -18.234375 C 3.695312 -19.867188 4.691406 -21.304688 5.953125 -22.546875 C 7.210938 -23.796875 8.664062 -24.765625 10.3125 -25.453125 C 11.96875 -26.148438 13.734375 -26.5 15.609375 -26.5 C 18.191406 -26.5 20.441406 -25.945312 22.359375 -24.84375 C 24.285156 -23.75 25.785156 -22.234375 26.859375 -20.296875 C 27.941406 -18.359375 28.484375 -16.113281 28.484375 -13.5625 C 28.484375 -13.113281 28.484375 -12.660156 28.484375 -12.203125 C 28.484375 -11.753906 28.453125 -11.304688 28.390625 -10.859375 Z M 20.9375 -15.84375 C 20.90625 -16.488281 20.6875 -17.15625 20.28125 -17.84375 C 19.875 -18.539062 19.273438 -19.128906 18.484375 -19.609375 C 17.691406 -20.097656 16.664062 -20.34375 15.40625 -20.34375 C 14.28125 -20.34375 13.3125 -20.082031 12.5 -19.5625 C 11.695312 -19.050781 11.066406 -18.445312 10.609375 -17.75 C 10.160156 -17.0625 9.882812 -16.425781 9.78125 -15.84375 Z M 20.9375 -15.84375 "/></g></g><g style="fill:#0b4a84;fill-opacity:1;"><g transform="translate(288.567345, 213.56008)"><path style="stroke:none" d="M 11.09375 -39.484375 L 11.09375 0 L 3.484375 0 L 3.484375 -39.484375 Z M 11.09375 -39.484375 "/></g></g><g style="fill:#0b4a84;fill-opacity:1;"><g transform="translate(301.019716, 213.56008)"><path style="stroke:none" d="M 22.96875 -7.796875 C 22.96875 -5.378906 22.0625 -3.378906 20.25 -1.796875 C 18.445312 -0.210938 15.910156 0.578125 12.640625 0.578125 C 9.609375 0.578125 7.203125 0.03125 5.421875 -1.0625 C 3.648438 -2.164062 2.296875 -3.601562 1.359375 -5.375 L 6.921875 -8.671875 C 7.378906 -7.765625 8.109375 -7.015625 9.109375 -6.421875 C 10.109375 -5.828125 11.320312 -5.53125 12.75 -5.53125 C 13.71875 -5.53125 14.484375 -5.722656 15.046875 -6.109375 C 15.609375 -6.492188 15.890625 -6.925781 15.890625 -7.40625 C 15.890625 -7.863281 15.65625 -8.300781 15.1875 -8.71875 C 14.71875 -9.132812 13.582031 -9.539062 11.78125 -9.9375 C 10.195312 -10.289062 8.703125 -10.796875 7.296875 -11.453125 C 5.890625 -12.117188 4.75 -13 3.875 -14.09375 C 3 -15.195312 2.5625 -16.601562 2.5625 -18.3125 C 2.5625 -19.957031 3.03125 -21.394531 3.96875 -22.625 C 4.90625 -23.851562 6.125 -24.804688 7.625 -25.484375 C 9.132812 -26.160156 10.757812 -26.5 12.5 -26.5 C 14.988281 -26.5 17.070312 -26.003906 18.75 -25.015625 C 20.425781 -24.035156 21.671875 -22.785156 22.484375 -21.265625 L 17 -18.03125 C 16.582031 -18.769531 15.992188 -19.363281 15.234375 -19.8125 C 14.472656 -20.269531 13.5 -20.5 12.3125 -20.5 C 11.5 -20.5 10.84375 -20.3125 10.34375 -19.9375 C 9.84375 -19.5625 9.59375 -19.117188 9.59375 -18.609375 C 9.59375 -18.085938 9.832031 -17.625 10.3125 -17.21875 C 10.800781 -16.820312 11.691406 -16.492188 12.984375 -16.234375 C 16.085938 -15.585938 18.523438 -14.609375 20.296875 -13.296875 C 22.078125 -11.992188 22.96875 -10.160156 22.96875 -7.796875 Z M 22.96875 -7.796875 "/></g></g></g></svg>